<svg xmlns="http://www.w3.org/2000/svg" aria-hidden="true" style="position:absolute;width:0;height:0;overflow:hidden">
  <defs>
    <symbol id="icon-arrow-left" viewBox="0 0 32 32">
      <path stroke-linecap="round" stroke-linejoin="round" stroke-width="2" d="M18.667 21.333 13.334 16l5.333-5.333"/>
    </symbol>
    <symbol id="icon-arrow-right" viewBox="0 0 32 32">
      <path stroke-linecap="round" stroke-linejoin="round" stroke-width="2" d="M13.333 10.667 18.666 16l-5.333 5.333"/>
    </symbol>
    <symbol id="icon-checkmark" viewBox="0 0 32 32">
      <path stroke-linecap="round" stroke-linejoin="round" stroke-width="3.556" d="M26.667 8 12 22.667 5.333 16"/>
    </symbol>
    <symbol id="icon-arrow-down" viewBox="0 0 32 32">
      <path stroke-linecap="round" stroke-linejoin="round" stroke-width="3.2" d="m8 12 8 8 8-8"/>
    </symbol>
    <symbol id="icon-discount-mark" viewBox="0 0 32 32">
      <path fill="#6d8434" d="M32 16c0 8.837-7.163 16-16 16S0 24.837 0 16 7.163 0 16 0s16 7.163 16 16z" style="fill:var(--color1, #6d8434)"/>
      <path fill="#fafafa" d="m26.947 20.863-.233.63-4.294-1.582.233-.63.354.131.004-.012a1.224 1.224 0 0 1-.099-1.1c.29-.786 1.118-1.143 2.127-.771s1.406 1.18 1.116 1.966c-.175.474-.508.693-.802.768l-.004.012 1.597.589zm-3.557-2.266c-.191.516.118.992.797 1.242.685.252 1.223.089 1.413-.427.204-.552-.192-1.032-.792-1.254s-1.214-.113-1.418.439zM25.093 22.529c.11-.15.327-.229.513-.093s.171.363.061.512c-.117.16-.325.238-.511.102s-.18-.361-.062-.521zm-.248-.593-.397.542-2.64-1.93.397-.542 2.64 1.93zM21.828 23.303c-.554.274-1.144.585-1.641-.017-.4-.483-.233-1.126.38-1.63.815-.671 1.48-.58 1.945-.068l-.504.415c-.249-.251-.559-.385-1.093.054-.361.297-.367.601-.237.759.261.316.583.092 1.027-.124.478-.236 1.086-.604 1.559-.032.343.414.25 1.046-.382 1.567-.687.565-1.319.464-1.716.053l.504-.415c.198.169.464.29.869-.044.311-.256.381-.513.235-.691-.212-.257-.51-.044-.945.173zM18.35 25.162c.132.307.462.62 1.007.435.624-.212.709-.836.51-1.417s-.641-1.026-1.271-.812c-.545.185-.617.629-.524.982l-.636.216c-.196-.731.176-1.445.982-1.719.927-.315 1.755.148 2.085 1.117s-.042 1.839-.963 2.152c-.806.274-1.509-.062-1.828-.738l.636-.216zM15.606 23.245c1.022.062 1.599.809 1.537 1.825s-.724 1.687-1.746 1.624c-1.022-.062-1.599-.809-1.537-1.825s.724-1.687 1.746-1.624zm-.033.55c-.639-.039-1.002.445-1.042 1.116-.041.677.261 1.196.9 1.235s1.001-.439 1.042-1.116c.041-.671-.261-1.196-.9-1.235zM10.77 25.275l-.605-.293 1.431-2.941.605.293-.185.38.012.006c.267-.155.685-.237 1.191.009.547.265.825.791.497 1.465l-.988 2.032-.61-.296.904-1.859c.193-.397.149-.731-.265-.932-.466-.226-.903-.09-1.116.348l-.871 1.79zM7.833 22.957c-.406-.453-.464-1.045.095-1.543l1.685-1.505.453.505-1.542 1.377c-.329.294-.416.62-.108.963.346.386.802.425 1.165.101l1.485-1.326.448.5-2.44 2.178-.448-.5.315-.281-.009-.01c-.306.042-.724-.04-1.1-.46zM6.447 19.376l.253.56 1.617-.728c.338-.152.306-.334.103-.72l.502-.226c.085.109.163.236.237.399.222.49.121.858-.509 1.142l-1.669.751.195.432-.502.226-.195-.432-.94.423-.28-.618.94-.423-.253-.56.502-.226zM4.494 12.648l.146-.656 4.467.994-.146.656-.369-.082-.003.012c.181.217.355.584.245 1.077-.182.818-.954 1.283-2.004 1.049s-1.552-.981-1.37-1.8c.11-.493.411-.754.692-.869l.003-.012-1.662-.37zm3.828 1.769c.12-.537-.25-.967-.956-1.124-.712-.158-1.223.075-1.343.613-.128.575.329.998.953 1.136s1.218-.05 1.346-.625zM6.103 10.748c-.089.163-.293.271-.495.161s-.218-.336-.129-.5c.095-.174.29-.279.493-.17s.226.334.132.508zm.324.555.321-.59 2.875 1.559-.321.59-2.875-1.559zM9.241 9.534c.514-.344 1.057-.73 1.629-.198.459.427.379 1.086-.163 1.666-.72.772-1.391.769-1.919.322l.445-.477c.28.216.605.309 1.076-.197.319-.342.285-.644.135-.783-.3-.279-.59-.015-1.002.257-.443.296-.998.741-1.542.236-.394-.366-.385-1.004.174-1.603.607-.65 1.247-.633 1.694-.278l-.445.477c-.218-.142-.498-.227-.856.157-.275.295-.311.559-.142.715.244.227.511-.023.914-.295z" style="fill:var(--color2, #fafafa)"/>
      <path fill="#fafafa" d="M12.396 7.25c-.172-.286-.542-.552-1.057-.295-.59.295-.589.924-.314 1.473s.774.93 1.37.632c.515-.257.526-.706.386-1.044l.601-.3c.293.698.022 1.456-.74 1.836-.876.438-1.759.091-2.218-.824s-.208-1.828.662-2.262c.762-.38 1.504-.143 1.911.483l-.601.3zM15.372 8.766c-1.021.074-1.693-.589-1.767-1.604s.492-1.768 1.513-1.843c1.021-.074 1.693.589 1.768 1.604s-.492 1.768-1.513 1.843zm-.041-.549c.638-.046.933-.575.884-1.245-.05-.677-.418-1.15-1.057-1.104s-.934.568-.884 1.245c.049.67.418 1.15 1.057 1.104zM19.919 6.105l.638.21-1.026 3.105-.638-.21.133-.401-.012-.004c-.244.189-.647.326-1.182.149-.577-.191-.923-.675-.688-1.386l.709-2.145.644.213-.649 1.963c-.139.419-.051.745.387.889.492.162.907-.031 1.059-.493l.625-1.89zM23.143 8.004c.462.396.597.975.108 1.543l-1.473 1.713-.515-.441 1.348-1.567c.288-.335.331-.669-.019-.969-.394-.337-.851-.316-1.168.053l-1.298 1.509-.51-.437 2.132-2.48.51.437-.275.32.01.008c.298-.082.723-.055 1.15.311zM24.984 11.342l-.326-.521-1.504.939c-.315.196-.258.372-.005.727l-.467.291a1.917 1.917 0 0 1-.288-.363c-.285-.456-.236-.834.351-1.2l1.553-.969-.252-.401.467-.291.252.401.874-.546.36.575-.874.546.326.521-.467.291zM17.556 14.756c-2.8.622-3.453 2.542-4.1 4.15l.588.205.296-.716c.149.053.305.093.417.093 3.422 0 4.356-5.289 4.356-5.289-.311.622-2.489.7-4.044 1.011s-2.178 1.633-2.178 2.256.544 1.167.544 1.167c1.011-2.878 4.122-2.878 4.122-2.878z" style="fill:var(--color2, #fafafa)"/>
    </symbol>
    <symbol id="icon-facebook" viewBox="0 0 32 32">
      <path d="M19.52 4.64h.96v3.6h-1.2c-.48 0-.96 0-1.2.24s-.24.48-.24 1.04v1.28h2.64v3.04h-2.64v13.2h-4.08V13.76H11.6v-3.04h2.16V9.68c0-1.76.24-3.04.72-3.6.72-1.04 2.16-1.52 4.32-1.52.24.08.48.08.72.08z"/>
    </symbol>
    <symbol id="icon-basket" viewBox="0 0 32 32">
      <path d="M4.8 1.6a1.6 1.6 0 0 0 0 3.2h1.952l.488 1.955.016.067 2.173 8.688L8 16.937c-2.016 2.016-.589 5.462 2.262 5.462h13.737a1.6 1.6 0 0 0 0-3.2H10.261l1.6-1.6h10.537a1.602 1.602 0 0 0 1.431-.885l4.8-9.6c.122-.244.18-.515.167-.787s-.094-.537-.237-.769a1.597 1.597 0 0 0-1.36-.759H10.047L9.551 2.81a1.601 1.601 0 0 0-1.552-1.212h-3.2zm20.8 24.8a2.4 2.4 0 1 1-4.799 0 2.4 2.4 0 0 1 4.799 0zm-15.2 2.4a2.401 2.401 0 1 0-.001-4.802A2.401 2.401 0 0 0 10.4 28.8z"/>
    </symbol>
    <symbol id="icon-search" viewBox="0 0 32 32">
      <path d="M20.667 18.667h-1.053l-.373-.36a8.625 8.625 0 0 0 2.093-5.64 8.668 8.668 0 0 0-5.35-8.007A8.66 8.66 0 0 0 6.54 6.539a8.67 8.67 0 0 0-1.879 9.444 8.671 8.671 0 0 0 8.007 5.35 8.63 8.63 0 0 0 5.64-2.093l.36.373v1.053l6.667 6.653 1.987-1.987-6.653-6.667zm-8 0c-3.32 0-6-2.68-6-6s2.68-6 6-6 6 2.68 6 6-2.68 6-6 6z"/>
    </symbol>
    <symbol id="icon-instagram" viewBox="0 0 32 32">
      <path d="M28.718 10.756a9.264 9.264 0 0 0-.596-3.145 6.547 6.547 0 0 0-3.743-3.737 9.42 9.42 0 0 0-3.108-.596c-1.368-.061-1.801-.078-5.273-.078s-3.916 0-5.274.078a9.413 9.413 0 0 0-3.106.596 6.541 6.541 0 0 0-3.743 3.737 9.288 9.288 0 0 0-.596 3.101c-.061 1.367-.08 1.8-.08 5.265s0 3.909.08 5.265a9.335 9.335 0 0 0 .596 3.104 6.548 6.548 0 0 0 3.744 3.735 9.37 9.37 0 0 0 3.106.639c1.369.061 1.803.08 5.274.08s3.916 0 5.274-.08a9.362 9.362 0 0 0 3.108-.595 6.555 6.555 0 0 0 3.743-3.737 9.35 9.35 0 0 0 .596-3.104c.061-1.365.08-1.798.08-5.265-.003-3.466-.003-3.906-.082-5.264zM15.99 22.531c-3.631 0-6.572-2.936-6.572-6.561s2.941-6.561 6.572-6.561c3.628 0 6.572 2.936 6.572 6.561s-2.944 6.561-6.572 6.561zm6.834-11.835a1.53 1.53 0 1 1 0-3.06 1.53 1.53 0 1 1 0 3.06z"/>
      <path d="M15.992 19.976a4.004 4.004 0 1 0 0-8.009 4.004 4.004 0 0 0 0 8.009z"/>
    </symbol>
    <symbol id="icon-close" viewBox="0 0 32 32">
      <path d="M25 9.093 22.907 7 16 13.907 9.093 7 7 9.093 13.907 16 7 22.907 9.093 25 16 18.093 22.907 25 25 22.907 18.093 16 25 9.093z"/>
    </symbol>
    <symbol id="icon-logo-footer" viewBox="0 0 176 32">
      <path fill="#e8e8e2" d="M32 16c0 8.837-7.163 16-16 16S0 24.837 0 16 7.163 0 16 0s16 7.163 16 16z" style="fill:var(--color3, #e8e8e2)"/>
      <path fill="#6d8434" d="M16.849 9.499a3.066 3.066 0 0 0-1.038-.975c-1.149-.659-2.629-.543-3.995.222C9.28 10.167 7.619 12.838 7.619 16c0 4.221 3.055 7.629 7.045 8.274.436.07.881.107 1.336.107a8.35 8.35 0 0 0 8.381-8.446c-.018-1.472-.608-3.278-1.541-4.722-.93-1.438-2.359-2.749-4.135-2.732-.867.002-1.459.478-1.855 1.019v-.001zm5.071 3.158a3.605 3.605 0 0 0-.962-.025l-.884-1.486-1.309.777.68 1.143a5.188 5.188 0 0 0-.811.476.566.566 0 0 0-.014-.044c-.203-.617-.597-1.124-1.121-1.627l.003-.015c.053-.246.136-.564.262-.872.284-.698.614-.981.945-.981h.008c.984-.011 2.008.744 2.843 2.035.13.2.25.407.361.619l-.001.001zm-4.694 2.284a4.05 4.05 0 0 0-.762.089 2.867 2.867 0 0 0-.809-.872 2.454 2.454 0 0 0-2.318-.299 11.947 11.947 0 0 0-.247-.138l2.463-2.414-1.067-1.088-2.922 2.864c-.617-.179-1.194-.243-1.712-.171a6.63 6.63 0 0 1 2.708-2.836c1.039-.582 1.933-.55 2.492-.229.533.306.976.999.865 2.238l-.034.383.288.255c.626.554.887.912 1 1.254.079.24.105.53.054.965zm-2.141.766c-.651.545-1.087 1.309-1.341 2.135l-2.266-2.488-1.127 1.027 3.115 3.419c-.004.908.113 1.838.282 2.678a6.822 6.822 0 0 1-4.606-6.479c0-.792.22-1.224.479-1.413.245-.18.782-.327 1.882.079.398.147.858.373 1.384.7l.382.238.393-.221c.475-.267.837-.172 1.115.023.122.085.226.192.306.301zm1.345 7.136 5.556-6.123-1.128-1.024-2.234 2.462.005-.773-1.524-.011-.018 2.476-1.892 2.085c-.143-.778-.229-1.614-.201-2.398.049-1.337.583-2.436 1.373-2.871.328-.181.906-.251 1.363-.171l.678.118.187-.662c.098-.345.356-.715.76-1.044.41-.331.887-.569 1.397-.698.61-.149 1.131-.072 1.474.165.299.206.6.626.629 1.489v.014l.002.122a6.822 6.822 0 0 1-6.427 6.843z" style="fill:var(--color1, #6d8434)"/>
      <path fill="#e8e8e2" d="M41.76 22.034c1.008-.123 1.563-.576 1.563-1.378v-8.373c0-.802-.555-1.275-1.563-1.378v-.823h10.45c.185 0 .267.062.288.206.062.617.103 1.234.432 2.736h-.514c-.72-1.255-1.337-1.913-2.551-1.913h-1.749c-.926 0-1.317.514-1.317 1.337v2.16c0 .823.391 1.275 1.317 1.275h.823c1.666 0 1.975-.391 2.139-1.317h.453v3.662h-.453c-.165-.864-.473-1.296-2.139-1.296h-.823c-.926 0-1.317.453-1.317 1.275v2.448c0 .802.555 1.255 1.769 1.378v.823h-6.809v-.823zm16.362.947c-2.53 0-5.102-1.522-5.102-4.855 0-3.312 2.571-4.731 5.04-4.731 2.551 0 5.102 1.522 5.102 4.855 0 3.312-2.551 4.731-5.04 4.731zm-1.81-5.76c0 2.551.843 4.814 2.16 4.814.802 0 1.399-.802 1.399-2.921 0-2.53-.802-4.793-2.16-4.793-.823 0-1.399.823-1.399 2.901zm12.87 5.76c-2.53 0-5.102-1.522-5.102-4.855 0-3.312 2.571-4.731 5.04-4.731 2.551 0 5.102 1.522 5.102 4.855 0 3.312-2.551 4.731-5.04 4.731zm-1.811-5.76c0 2.551.843 4.814 2.16 4.814.802 0 1.399-.802 1.399-2.921 0-2.53-.802-4.793-2.16-4.793-.823 0-1.399.823-1.399 2.901zm11.698 5.76c-1.934 0-3.929-1.584-3.929-4.629 0-3.271 2.242-4.958 4.423-4.958 2.263 0 2.859 1.769 2.859-.309v-1.234c0-.967-.535-1.131-1.296-1.07v-.802l3.353-.555c.699-.103 1.029.206 1.029.823v10.512c0 .679.267 1.131.864.885v.453c-.288.699-1.029.885-1.666.885-.699 0-1.584-.226-1.831-.843-.165-.391-.35-.597-.658-.597-.411 0-1.234 1.44-3.147 1.44zm-.617-5.699c0 2.037.905 4.032 2.222 4.032.802 0 1.749-.576 1.749-2.304v-.967c0-2.674-1.255-3.723-2.283-3.723-1.049 0-1.687 1.296-1.687 2.962zm12.237 4.752c1.008-.123 1.563-.576 1.563-1.378v-8.352c0-.823-.555-1.296-1.563-1.399v-.823h6.357c4.032 0 6.027.967 6.027 3.045 0 1.173-.679 2.325-3.024 2.695 2.633.37 3.765 1.605 3.765 3.353 0 2.386-2.119 3.682-4.999 3.682-1.646 0-5.143-.514-8.126 0v-.823zm5.041-1.069c0 .535.329.782.926.782h.72c1.563 0 2.736-.597 2.736-2.592 0-1.934-1.193-2.777-3.456-2.777-.535 0-.926.411-.926 1.234v3.353zm0-6.81c0 .823.391 1.234 1.317 1.234h.535c1.419 0 1.79-1.111 1.79-2.057 0-1.44-.782-2.242-2.119-2.242h-.206c-.926 0-1.317.432-1.317 1.255v1.81zm14.114 8.826c-2.53 0-5.102-1.522-5.102-4.855 0-3.312 2.571-4.731 5.04-4.731 2.551 0 5.102 1.522 5.102 4.855 0 3.312-2.551 4.731-5.041 4.731zm-1.81-5.76c0 2.551.843 4.814 2.16 4.814.802 0 1.399-.802 1.399-2.921 0-2.53-.802-4.793-2.16-4.793-.823 0-1.399.823-1.399 2.901zm11.321 5.76c-1.44 0-3.003-.597-3.003-3.826v-3.271c0-.946-.535-1.111-1.296-1.09v-.802l3.353-.555c.699-.103 1.029.206 1.029.823v4.402c0 1.44.597 2.469 1.707 2.469 1.131 0 1.707-1.029 1.707-2.469v-2.777c0-.946-.535-1.111-1.296-1.09v-.802l3.333-.555c.72-.103 1.049.206 1.049.823v6.501c0 .679.267 1.131.864.885v.453c-.288.699-1.029.885-1.728.885-1.481 0-1.893-.926-1.995-1.378-.062-.288-.226-.432-.37-.432s-.247.123-.35.267c-.576.782-1.378 1.543-3.003 1.543zm12.268-.021c-1.893 0-3.045-1.049-3.045-3.045V15.41c0-.72-.165-.864-.638-.864h-.926v-.658c1.707-.391 2.53-1.173 3.23-2.304.165-.267.309-.35.576-.35h.37c.309 0 .494.185.494.494l-.021 1.275c0 .453.226.576 1.275.576h1.337v1.09l-1.337-.082c-1.049-.062-1.275.123-1.275.864v4.361c0 1.131.123 1.893 1.131 1.893.267 0 .679-.041 1.07-.329.267.329.37.617.103.864-.473.411-1.317.72-2.345.72zm3.483-.905c.946-.062 1.296-.37 1.296-1.481v-4.711c0-.967-.535-1.131-1.275-1.07v-.802l3.333-.555c.699-.103 1.029.206 1.029.823v6.315c0 1.111.35 1.419 1.275 1.481v.802h-5.657v-.802zm.803-11.212c0-.987.823-1.749 1.79-1.749.946 0 1.749.761 1.749 1.749s-.802 1.749-1.749 1.749c-.967 0-1.79-.761-1.79-1.749zm10.997 15.141c1.173-.082 1.522-.391 1.522-1.419v-2.201c0-.37-.185-.494-.37-.494a.406.406 0 0 0-.288.123c-.411.411-1.296.987-2.592.987-2.119 0-4.073-1.563-4.073-4.587 0-3.291 2.283-4.999 4.649-4.999 2.057 0 2.921 1.255 3.682 1.255.72 0 1.008-1.234 1.584-1.234.37 0 .494.206.494.494v10.656c0 1.029.35 1.337 1.275 1.419v.782h-5.883v-.782zm-2.489-8.722c0 2.037.864 4.053 2.304 4.053.782 0 1.687-.576 1.707-2.88-.021-3.086-1.296-4.114-2.325-4.114-1.111 0-1.687 1.296-1.687 2.942zm12.367 5.719c-1.44 0-3.003-.597-3.003-3.826v-3.271c0-.946-.535-1.111-1.296-1.09v-.802l3.353-.555c.699-.103 1.029.206 1.029.823v4.402c0 1.44.597 2.469 1.707 2.469 1.131 0 1.707-1.029 1.707-2.469v-2.777c0-.946-.535-1.111-1.296-1.09v-.802l3.333-.555c.72-.103 1.049.206 1.049.823v6.501c0 .679.267 1.131.864.885v.453c-.288.699-1.029.885-1.728.885-1.481 0-1.893-.926-1.995-1.378-.062-.288-.226-.432-.37-.432s-.247.123-.35.267c-.576.782-1.378 1.543-3.003 1.543zm13.391 0c-2.571 0-5.122-1.481-5.122-4.711 0-3.374 2.757-4.875 5.307-4.875 2.181 0 3.95 1.09 3.95 2.901 0 1.851-1.79 1.954-3.6 2.098l-1.605.123c-.35.021-.535.185-.535.658 0 1.522 1.646 2.201 3.003 2.201.72 0 1.707-.206 2.448-1.049l.617.555c-.391.802-2.057 2.098-4.464 2.098zm-1.749-6.151c0 .597.144.905.679.885l.741-.082c1.419-.144 1.707-.514 1.707-1.317 0-.987-.411-1.975-1.481-1.975-1.337 0-1.646 1.502-1.646 2.489z" style="fill:var(--color3, #e8e8e2)"/>
    </symbol>
    <symbol id="icon-logo-header" viewBox="0 0 175 32">
      <path fill="#6d8434" d="M32 16c0 8.837-7.163 16-16 16S0 24.837 0 16 7.163 0 16 0s16 7.163 16 16z" style="fill:var(--color1, #6d8434)"/>
      <path fill="#e8e8e2" d="M16.849 9.499a3.066 3.066 0 0 0-1.038-.975c-1.149-.659-2.629-.543-3.995.222C9.28 10.167 7.619 12.838 7.619 16c0 4.221 3.055 7.629 7.045 8.274.436.07.881.107 1.336.107a8.35 8.35 0 0 0 8.381-8.446c-.018-1.472-.608-3.278-1.541-4.722-.93-1.438-2.359-2.749-4.135-2.732-.867.002-1.459.478-1.855 1.019v-.001zm5.071 3.158a3.605 3.605 0 0 0-.962-.025l-.884-1.486-1.309.777.68 1.143a5.188 5.188 0 0 0-.811.476.566.566 0 0 0-.014-.044c-.203-.617-.597-1.124-1.121-1.627l.003-.015c.053-.246.136-.564.262-.872.284-.698.614-.981.945-.981h.008c.984-.011 2.008.744 2.843 2.035.13.2.25.407.361.619l-.001.001zm-4.694 2.284a4.05 4.05 0 0 0-.762.089 2.867 2.867 0 0 0-.809-.872 2.454 2.454 0 0 0-2.318-.299 11.947 11.947 0 0 0-.247-.138l2.463-2.414-1.067-1.088-2.922 2.864c-.617-.179-1.194-.243-1.712-.171a6.63 6.63 0 0 1 2.708-2.836c1.039-.582 1.933-.55 2.492-.229.533.306.976.999.865 2.238l-.034.383.288.255c.626.554.887.912 1 1.254.079.24.105.53.054.965zm-2.141.766c-.651.545-1.087 1.309-1.341 2.135l-2.266-2.488-1.127 1.027 3.115 3.419c-.004.908.113 1.838.282 2.678a6.822 6.822 0 0 1-4.606-6.479c0-.792.22-1.224.479-1.413.245-.18.782-.327 1.882.079.398.147.858.373 1.384.7l.382.238.393-.221c.475-.267.837-.172 1.115.023.122.085.226.192.306.301zm1.345 7.136 5.556-6.123-1.128-1.024-2.234 2.462.005-.773-1.524-.011-.018 2.476-1.892 2.085c-.143-.778-.229-1.614-.201-2.398.049-1.337.583-2.436 1.373-2.871.328-.181.906-.251 1.363-.171l.678.118.187-.662c.098-.345.356-.715.76-1.044.41-.331.887-.569 1.397-.698.61-.149 1.131-.072 1.474.165.299.206.6.626.629 1.489v.014l.002.122a6.822 6.822 0 0 1-6.427 6.843z" style="fill:var(--color3, #e8e8e2)"/>
      <path fill="#010101" d="M41.143 20.104c1.008-.123 1.563-.576 1.563-1.378v-8.373c0-.802-.555-1.275-1.563-1.378v-.823h10.45c.185 0 .267.062.288.206.062.617.103 1.234.432 2.736h-.514c-.72-1.255-1.337-1.913-2.551-1.913h-1.749c-.926 0-1.317.514-1.317 1.337v2.16c0 .823.391 1.275 1.317 1.275h.823c1.666 0 1.975-.391 2.139-1.317h.453v3.662h-.453c-.165-.864-.473-1.296-2.139-1.296h-.823c-.926 0-1.317.453-1.317 1.275v2.448c0 .802.555 1.255 1.769 1.378v.823h-6.809v-.823zM57.505 21.05c-2.53 0-5.102-1.522-5.102-4.855 0-3.312 2.571-4.731 5.04-4.731 2.551 0 5.102 1.522 5.102 4.855 0 3.312-2.551 4.731-5.04 4.731zm-1.81-5.76c0 2.551.843 4.814 2.16 4.814.802 0 1.399-.802 1.399-2.921 0-2.53-.802-4.793-2.16-4.793-.823 0-1.399.823-1.399 2.901zM68.565 21.05c-2.53 0-5.102-1.522-5.102-4.855 0-3.312 2.571-4.731 5.04-4.731 2.551 0 5.102 1.522 5.102 4.855 0 3.312-2.551 4.731-5.04 4.731zm-1.811-5.76c0 2.551.843 4.814 2.16 4.814.802 0 1.399-.802 1.399-2.921 0-2.53-.802-4.793-2.16-4.793-.823 0-1.399.823-1.399 2.901zM78.452 21.05c-1.934 0-3.929-1.584-3.929-4.629 0-3.271 2.242-4.958 4.423-4.958 2.263 0 2.859 1.769 2.859-.309V9.92c0-.967-.535-1.131-1.296-1.07v-.802l3.353-.555c.699-.103 1.029.206 1.029.823v10.512c0 .679.267 1.131.864.885v.453c-.288.699-1.029.885-1.666.885-.699 0-1.584-.226-1.831-.843-.165-.391-.35-.597-.658-.597-.411 0-1.234 1.44-3.147 1.44zm-.618-5.698c0 2.037.905 4.032 2.222 4.032.802 0 1.749-.576 1.749-2.304v-.967c0-2.674-1.255-3.723-2.283-3.723-1.049 0-1.687 1.296-1.687 2.962zM90.072 20.104c1.008-.123 1.563-.576 1.563-1.378v-8.352c0-.823-.555-1.296-1.563-1.399v-.823h6.357c4.032 0 6.027.967 6.027 3.045 0 1.173-.679 2.325-3.024 2.695 2.633.37 3.765 1.605 3.765 3.353 0 2.386-2.119 3.682-4.999 3.682-1.646 0-5.143-.514-8.126 0v-.823zm5.04-1.07c0 .535.329.782.926.782h.72c1.563 0 2.736-.597 2.736-2.592 0-1.934-1.193-2.777-3.456-2.777-.535 0-.926.411-.926 1.234v3.353zm0-6.809c0 .823.391 1.234 1.317 1.234h.535c1.419 0 1.79-1.111 1.79-2.057 0-1.44-.782-2.242-2.119-2.242h-.206c-.926 0-1.317.432-1.317 1.255v1.81zM109.227 21.05c-2.53 0-5.102-1.522-5.102-4.855 0-3.312 2.571-4.731 5.04-4.731 2.551 0 5.102 1.522 5.102 4.855 0 3.312-2.551 4.731-5.04 4.731zm-1.81-5.76c0 2.551.843 4.814 2.16 4.814.802 0 1.399-.802 1.399-2.921 0-2.53-.802-4.793-2.16-4.793-.823 0-1.399.823-1.399 2.901zM118.738 21.05c-1.44 0-3.003-.597-3.003-3.826v-3.271c0-.946-.535-1.111-1.296-1.09v-.802l3.353-.555c.699-.103 1.029.206 1.029.823v4.402c0 1.44.597 2.469 1.707 2.469 1.131 0 1.707-1.029 1.707-2.469v-2.777c0-.946-.535-1.111-1.296-1.09v-.802l3.333-.555c.72-.103 1.049.206 1.049.823v6.501c0 .679.267 1.131.864.885v.453c-.288.699-1.029.885-1.728.885-1.481 0-1.893-.926-1.995-1.378-.062-.288-.226-.432-.37-.432s-.247.123-.35.267c-.576.782-1.378 1.543-3.003 1.543zM131.006 21.03c-1.893 0-3.045-1.049-3.045-3.045V13.48c0-.72-.165-.864-.638-.864h-.926v-.658c1.707-.391 2.53-1.173 3.23-2.304.165-.267.309-.35.576-.35h.37c.309 0 .494.185.494.494l-.021 1.275c0 .453.226.576 1.275.576h1.337v1.09l-1.337-.082c-1.049-.062-1.275.123-1.275.864v4.361c0 1.131.123 1.893 1.131 1.893.267 0 .679-.041 1.07-.329.267.329.37.617.103.864-.473.411-1.317.72-2.345.72zM134.489 20.125c.946-.062 1.296-.37 1.296-1.481v-4.711c0-.967-.535-1.131-1.275-1.07v-.802l3.333-.555c.699-.103 1.029.206 1.029.823v6.315c0 1.111.35 1.419 1.275 1.481v.802h-5.657v-.802zm.802-11.212c0-.987.823-1.749 1.79-1.749.946 0 1.749.761 1.749 1.749s-.802 1.749-1.749 1.749c-.967 0-1.79-.761-1.79-1.749zM146.289 24.054c1.173-.082 1.522-.391 1.522-1.419v-2.201c0-.37-.185-.494-.37-.494a.406.406 0 0 0-.288.123c-.411.411-1.296.987-2.592.987-2.119 0-4.073-1.563-4.073-4.587 0-3.291 2.283-4.999 4.649-4.999 2.057 0 2.921 1.255 3.682 1.255.72 0 1.008-1.234 1.584-1.234.37 0 .494.206.494.494v10.656c0 1.029.35 1.337 1.275 1.419v.782h-5.883v-.782zm-2.489-8.723c0 2.037.864 4.053 2.304 4.053.782 0 1.687-.576 1.707-2.88-.021-3.086-1.296-4.114-2.325-4.114-1.111 0-1.687 1.296-1.687 2.942zM156.167 21.05c-1.44 0-3.003-.597-3.003-3.826v-3.271c0-.946-.535-1.111-1.296-1.09v-.802l3.353-.555c.699-.103 1.029.206 1.029.823v4.402c0 1.44.597 2.469 1.707 2.469 1.131 0 1.707-1.029 1.707-2.469v-2.777c0-.946-.535-1.111-1.296-1.09v-.802l3.333-.555c.72-.103 1.049.206 1.049.823v6.501c0 .679.267 1.131.864.885v.453c-.288.699-1.029.885-1.728.885-1.481 0-1.893-.926-1.995-1.378-.062-.288-.226-.432-.37-.432s-.247.123-.35.267c-.576.782-1.378 1.543-3.003 1.543zM169.558 21.05c-2.571 0-5.122-1.481-5.122-4.711 0-3.374 2.757-4.875 5.307-4.875 2.181 0 3.95 1.09 3.95 2.901 0 1.851-1.79 1.954-3.6 2.098l-1.605.123c-.35.021-.535.185-.535.658 0 1.522 1.646 2.201 3.003 2.201.72 0 1.707-.206 2.448-1.049l.617.555c-.391.802-2.057 2.098-4.464 2.098zm-1.749-6.151c0 .597.144.905.679.885l.741-.082c1.419-.144 1.707-.514 1.707-1.317 0-.987-.411-1.975-1.481-1.975-1.337 0-1.646 1.502-1.646 2.489z" style="fill:var(--color4, #010101)"/>
    </symbol>
    <symbol id="icon-organic-food-mark" viewBox="0 0 32 32">
      <path fill="#fdc152" d="M32 16c0 8.837-7.163 16-16 16S0 24.837 0 16 7.163 0 16 0s16 7.163 16 16z" style="fill:var(--color5, #fdc152)"/>
      <path fill="#010101" d="M25.174 17.182c.104-.813.731-1.233 1.538-1.13s1.308.668 1.204 1.48c-.104.813-.731 1.233-1.538 1.13s-1.308-.668-1.204-1.481zm.437.056c-.065.508.303.823.836.891.538.069.968-.145 1.033-.652s-.297-.823-.836-.891c-.533-.068-.968.145-1.033.652zM27.137 20.516a1.724 1.724 0 0 1-.093.217l-.478-.169.003-.01c.255-.458.065-.966-.461-1.152l-1.26-.446.179-.507 2.466.873-.179.507-.463-.164-.003.01c.263.24.403.518.289.841zM25.819 22.819l-.284.457-2.07-1.286c-.639-.397-.682-.96-.29-1.59.397-.639.951-.784 1.355-.599l-.286.461c-.223-.078-.468-.013-.692.348-.238.383-.185.687.215.935l.27.167.005-.009c-.092-.22-.131-.527.088-.879.346-.557.992-.734 1.692-.299.705.438.828 1.093.482 1.65-.219.352-.511.454-.741.474l-.005.009.261.162zm-1.369-1.676c-.23.37-.124.743.346 1.035s.851.221 1.081-.149c.248-.4.075-.791-.338-1.048-.409-.254-.84-.238-1.089.162zM23.459 24.426c.131.137.311.164.571-.083.312-.296.335-.502.121-.765l.379-.36c.327.381.365.889-.207 1.433-.419.399-.883.535-1.363.031l-.857-.902c-.127-.134-.224-.176-.362-.016l-.176-.186a.8.8 0 0 1 .188-.256c.208-.198.375-.215.588-.065l.007-.007c-.04-.28.066-.6.359-.878.386-.367.835-.37 1.138-.051.395.416.21.838-.176 1.383-.24.334-.383.541-.21.723zm-.544-1.666c-.323.307-.394.678-.101.986l.272.286c.021-.104.131-.294.277-.504.256-.377.309-.604.125-.797-.166-.174-.361-.172-.573.029zM21.582 26.621c-.427.233-.899.171-1.186-.355l-.867-1.586.476-.26.793 1.451c.169.31.408.436.731.26.364-.199.477-.547.29-.888l-.764-1.397.472-.258 1.255 2.296-.472.258-.162-.297-.009.005c-.023.246-.163.556-.558.772zM19.932 27.718c.141-.046.319.004.376.18s-.059.315-.2.361c-.151.049-.322.002-.379-.173s.053-.319.204-.368zm.117-.501-.511.166-.808-2.489.511-.166.808 2.489zM16.83 26.935c.054.261.263.56.72.502.523-.067.689-.542.627-1.03s-.338-.907-.866-.839c-.457.058-.584.395-.568.687l-.533.068c-.036-.604.37-1.105 1.045-1.192.777-.099 1.351.395 1.455 1.208s-.327 1.436-1.099 1.534c-.675.086-1.172-.289-1.314-.87l.533-.068zM11.643 27.731c.328.118.466.124.554-.16l.085-.274-.459-.143.131-.42.459.143.648-2.077.518.162-.648 2.077.357.111-.131.42-.357-.111-.099.318c-.165.528-.447.643-.858.515a1.86 1.86 0 0 1-.331-.141l.131-.42zM11.604 24.07c.717.396.878 1.133.484 1.846s-1.103.971-1.82.575c-.717-.396-.878-1.133-.484-1.846s1.103-.971 1.82-.575zm-.213.385c-.448-.247-.877-.022-1.136.449-.262.475-.222.954.226 1.201s.874.026 1.136-.449c.26-.471.222-.954-.226-1.201z" style="fill:var(--color4, #010101)"/>
      <path fill="#010101" d="M9.701 22.674c.594.564.562 1.318.001 1.909s-1.312.66-1.906.096c-.594-.564-.562-1.318-.001-1.909s1.312-.66 1.906-.096zm-.303.32c-.371-.353-.843-.243-1.213.147-.374.393-.456.866-.085 1.219s.839.247 1.213-.147c.37-.39.456-.866.085-1.219z" style="fill:var(--color4, #010101)"/>
      <path fill="#010101" d="m4.684 22.229-.277-.461 3.138-1.885.277.461-.259.156.005.009a.978.978 0 0 1 .736.49c.345.575.153 1.27-.584 1.713s-1.441.286-1.786-.289c-.208-.347-.178-.664-.078-.885l-.005-.009-1.168.701zm3.196-1.084c-.227-.377-.678-.423-1.174-.125-.5.301-.668.718-.441 1.095.243.404.74.397 1.179.134s.678-.7.436-1.104zM6.849 16.375c.032.819-.517 1.337-1.331 1.368s-1.401-.443-1.432-1.262.517-1.337 1.331-1.368c.813-.031 1.401.443 1.432 1.261zm-.44.017c-.02-.512-.434-.762-.971-.741-.542.021-.931.302-.911.814s.429.762.971.741c.537-.021.931-.302.911-.814zM4.369 13.36c.016-.091.033-.155.057-.229l.499.089-.002.01c-.177.494.093.963.642 1.062l1.315.235-.095.529-2.575-.461.095-.529.484.087.002-.01c-.298-.194-.482-.445-.422-.783zM5.287 10.885l.206-.497 2.252.933c.695.288.828.836.544 1.522-.288.695-.811.928-1.239.811l.208-.501c.232.041.464-.063.626-.455.172-.416.071-.707-.364-.888l-.293-.121-.004.009c.127.202.215.499.056.882-.251.605-.86.885-1.621.57-.766-.317-.995-.944-.744-1.549.159-.383.431-.531.654-.588l.004-.009-.284-.118zm1.623 1.432c.167-.402.002-.753-.509-.965s-.876-.08-1.042.322c-.18.435.054.793.503.979.445.184.868.099 1.048-.336zM7.356 8.912c-.151-.115-.333-.112-.55.173-.261.342-.251.549.003.774l-.316.415c-.384-.324-.502-.82-.024-1.447.351-.46.786-.669 1.34-.247l.99.754c.147.112.249.138.36-.041l.204.155a.817.817 0 0 1-.144.283c-.174.228-.336.272-.571.158l-.006.008c.084.27.03.602-.215.924-.323.424-.766.498-1.116.232-.456-.347-.341-.794-.046-1.393.184-.368.292-.595.092-.747zm.802 1.558c.27-.354.281-.732-.057-.99l-.314-.239c-.004.107-.082.311-.193.541-.192.413-.208.646.003.807.191.146.384.112.561-.12zM8.821 6.462c.383-.3.859-.316 1.228.155l1.116 1.422-.427.335-1.021-1.301c-.218-.278-.474-.364-.764-.136-.326.256-.381.618-.141.924l.983 1.253-.423.332-1.615-2.058.423-.332.209.266.008-.006c-.018-.246.069-.575.424-.853zM10.294 5.089c-.132.068-.315.048-.4-.116s.007-.321.139-.389c.141-.073.318-.055.402.109s0 .323-.141.396zm-.034.514.477-.247 1.204 2.323-.477.247-1.204-2.323zM13.485 5.351c-.096-.249-.351-.51-.792-.377-.505.151-.592.648-.451 1.119s.481.839.991.686c.441-.132.512-.485.448-.77l.515-.154c.134.591-.184 1.151-.837 1.346-.75.225-1.398-.169-1.633-.954s.089-1.47.834-1.693c.652-.195 1.204.094 1.438.643l-.515.154zM18.451 3.719c-.343-.063-.48-.046-.521.248l-.04.284.477.067-.061.436-.477-.067-.301 2.155-.538-.075.301-2.155-.37-.052.061-.436.37.052.046-.33c.076-.548.337-.708.763-.648.132.018.246.05.35.085l-.061.436zM19.096 7.321c-.772-.273-1.051-.975-.779-1.742s.929-1.137 1.702-.864c.772.273 1.051.975.779 1.742s-.929 1.137-1.702.864zm.147-.415c.483.171.869-.122 1.048-.628.181-.512.063-.977-.419-1.148s-.867.117-1.048.628c-.179.507-.063.977.419 1.148z" style="fill:var(--color4, #010101)"/>
      <path fill="#010101" d="M21.17 8.361c-.678-.46-.77-1.209-.313-1.883s1.187-.865 1.865-.405c.678.46.77 1.209.313 1.883s-1.187.865-1.865.405zm.247-.364c.424.287.871.102 1.173-.343.305-.449.308-.929-.115-1.216s-.868-.106-1.173.343c-.302.445-.308.929.115 1.216zM26.247 8.03l.347.411-2.796 2.363-.347-.411.231-.195-.007-.008a.979.979 0 0 1-.805-.365c-.433-.512-.355-1.229.302-1.784s1.376-.513 1.809-.001c.261.309.282.627.218.861l.007.008 1.04-.879zm-2.98 1.582c.284.336.737.309 1.179-.065.446-.377.544-.815.26-1.152-.304-.36-.794-.274-1.186.057s-.558.8-.253 1.16zM17.6 14.72c-2.88.64-3.552 2.614-4.218 4.269l.605.211.304-.736c.154.054.314.096.429.096 3.52 0 4.48-5.44 4.48-5.44-.32.64-2.56.72-4.16 1.04s-2.24 1.68-2.24 2.32c0 .64.56 1.2.56 1.2 1.04-2.96 4.24-2.96 4.24-2.96z" style="fill:var(--color4, #010101)"/>
    </symbol>
    <symbol id="icon-youtube" viewBox="0 0 32 32">
      <path d="M24.24 6c-1.36-.08-4.16-.16-8.4-.16h-.56c-4.08 0-6.8.08-8.16.24-1.84.16-3.12.64-3.84 1.28-.64.56-1.12 1.6-1.28 2.96-.08.88-.16 2.72-.16 5.52v.4c0 2.64.08 4.48.24 5.36.24 1.28.64 2.24 1.44 2.8.8.64 2.16 1.04 4.08 1.2 1.36.08 4.16.16 8.4.16h.56c4.08 0 6.8-.08 8.16-.24 1.84-.16 3.12-.64 3.84-1.28.64-.56 1.12-1.6 1.28-2.96.08-.88.16-2.72.16-5.52v-.4c0-2.64-.08-4.48-.24-5.36-.24-1.28-.64-2.24-1.44-2.8-.8-.64-2.16-1.04-4.08-1.2zm-3.12 9.84-8.8 5.28V10.56l8.8 5.28z"/>
    </symbol>
    <symbol id="icon-minus" viewBox="0 0 34 32">
      <path stroke-linecap="round" stroke-linejoin="round" stroke-width="2.667" d="M7.556 16h18.667"/>
    </symbol>
    <symbol id="icon-plus" viewBox="0 0 34 32">
      <path stroke-linecap="round" stroke-linejoin="round" stroke-width="2.667" d="M16.889 6.667v18.667M7.556 16h18.667"/>
    </symbol>
  </defs>
</svg>
